<svg width="100.000000" height="20.000000" viewBox="0 0 100 20" fill="none" xmlns="http://www.w3.org/2000/svg" xmlns:xlink="http://www.w3.org/1999/xlink">
	<desc>
			Created with Pixso.
	</desc>
	<defs>
		<clipPath id="clip2031_75">
			<rect id="IMAGE" width="100.000000" height="20.000000" fill="white" fill-opacity="0"/>
		</clipPath>
	</defs>
	<g clip-path="url(#clip2031_75)">
		<path id="Vector" d="M0 19.6567L0 0L16.4741 0C18.5999 0 20.3934 0.352905 21.8549 1.05872C23.3352 1.7644 24.455 2.84216 25.2141 4.29187C25.9923 5.72241 26.3813 7.56323 26.3813 9.81396C26.3813 12.0458 25.9923 13.896 25.2141 15.3647C24.455 16.8145 23.3352 17.8922 21.8549 18.598C20.3934 19.3038 18.5999 19.6567 16.4741 19.6567L0 19.6567ZM5.09595 15.6509L16.4172 15.6509C17.2144 15.6509 17.907 15.5365 18.4954 15.3076C19.0837 15.0787 19.5771 14.7449 19.9758 14.3062C20.3744 13.8674 20.6686 13.3239 20.8583 12.6752C21.0481 12.0267 21.1429 11.2828 21.1429 10.4435L21.1429 9.24182C21.1429 8.38342 21.0481 7.63 20.8583 6.98145C20.6686 6.33289 20.3744 5.78918 19.9758 5.35046C19.5771 4.91174 19.0837 4.578 18.4954 4.34912C17.907 4.12012 17.2144 4.00574 16.4172 4.00574L5.09595 4.00574L5.09595 15.6509Z" fill="#FFFFFF" fill-opacity="1.000000" fill-rule="nonzero"/>
		<path id="Vector" d="M29.5096 19.6567L29.5096 0L49.1724 0C50.6147 0 51.8199 0.276611 52.7878 0.829712C53.7559 1.36389 54.4771 2.10779 54.9515 3.06152C55.4449 3.99622 55.6918 5.04529 55.6918 6.20886C55.6918 7.46777 55.3976 8.59326 54.8092 9.58508C54.2397 10.5579 53.4331 11.3209 52.3894 11.8741L56.318 19.6567L50.6243 19.6567L47.3788 12.7325L34.6056 12.7325L34.6056 19.6567L29.5096 19.6567ZM34.6056 8.927L48.1759 8.927C48.8782 8.927 49.438 8.69812 49.8556 8.24036C50.292 7.76343 50.5104 7.13403 50.5104 6.35193C50.5104 5.83691 50.4154 5.39819 50.2256 5.03577C50.0359 4.67334 49.7701 4.39673 49.4286 4.20605C49.0868 3.99622 48.6693 3.89124 48.1759 3.89124L34.6056 3.89124L34.6056 8.927Z" fill="#FFFFFF" fill-opacity="1.000000" fill-rule="nonzero"/>
		<path id="Vector" d="M67.6818 20C65.8029 20 64.1801 19.7043 62.8136 19.113C61.4661 18.5217 60.4316 17.6346 59.7104 16.4521C58.9893 15.2694 58.6287 13.8007 58.6287 12.0458L58.6287 0L63.7531 0L63.7531 11.9313C63.7531 13.1903 64.0852 14.1823 64.7495 14.907C65.4138 15.632 66.3911 15.9943 67.6818 15.9943C68.9724 15.9943 69.9594 15.632 70.6426 14.907C71.3258 14.1823 71.6675 13.1903 71.6675 11.9313L71.6675 0L76.7634 0L76.7634 12.0458C76.7634 13.8007 76.4028 15.2694 75.6815 16.4521C74.9603 17.6346 73.9259 18.5217 72.5785 19.113C71.231 19.7043 69.5986 20 67.6818 20Z" fill="#FFFFFF" fill-opacity="1.000000" fill-rule="nonzero"/>
		<path id="Vector" d="M80.698 19.6567L80.698 0L85.7939 0L85.7939 8.72681L93.5375 0L99.8577 0L92.5696 8.04004L100 19.6567L93.9646 19.6567L89.0394 11.5308L85.7939 14.5352L85.7939 19.6567L80.698 19.6567Z" fill="#FFFFFF" fill-opacity="1.000000" fill-rule="nonzero"/>
	</g>
</svg>
