<svg width="112.000000" height="36.000000" viewBox="0 0 112 36" fill="none" xmlns="http://www.w3.org/2000/svg" xmlns:xlink="http://www.w3.org/1999/xlink">
	<desc>
			Created with Pixso.
	</desc>
	<defs>
		<clipPath id="clip2031_150">
			<rect width="112.000000" height="36.000000" fill="white" fill-opacity="0"/>
		</clipPath>
	</defs>
	<g clip-path="url(#clip2031_150)">
		<path d="M48.391 21.177C48.391 16.911 45.88 13.698 41.9919 13.698C40.264 13.698 38.806 14.427 37.7531 15.831L37.7531 9L34 9L34 28.386L37.4561 28.386L37.4561 26.307C38.563 27.819 40.129 28.656 41.9919 28.656C45.88 28.656 48.391 25.389 48.391 21.177ZM44.53 21.177C44.53 23.877 42.991 25.308 41.155 25.308C39.292 25.308 37.78 23.85 37.78 21.123C37.78 18.396 39.3459 17.019 41.155 17.019C42.991 17.019 44.53 18.423 44.53 21.177ZM53.226 28.386L53.226 9L49.4459 9L49.4459 28.386L53.226 28.386ZM63.8274 28.386L66.8784 28.386L66.8784 19.314C66.8784 15.777 64.6644 13.698 60.8844 13.698C57.4014 13.698 54.9984 15.858 54.7823 19.179L58.1573 19.179C58.2924 17.559 59.2644 16.614 60.8844 16.614C62.4504 16.614 63.3684 17.559 63.3684 19.179L63.3684 20.043C62.4774 19.935 61.7754 19.881 60.9655 19.881C56.7534 19.881 54.4854 21.393 54.4854 24.201C54.4854 26.901 56.4834 28.656 59.4803 28.656C61.4514 28.656 62.8824 27.954 63.8274 26.604L63.8274 28.386ZM58.0225 24.093C58.0225 22.797 59.0754 22.122 61.2084 22.122C61.8564 22.122 62.4774 22.176 63.3684 22.311L63.3684 23.337C63.3684 25.011 62.2074 26.064 60.2904 26.064C58.8864 26.064 58.0225 25.308 58.0225 24.093ZM72.5155 20.529C72.5155 18.207 73.7845 17.019 75.2695 17.019C76.9705 17.019 77.8075 18.207 77.8075 20.34L77.8075 28.386L81.5334 28.386L81.5334 19.071C81.5334 15.588 79.5355 13.698 76.6465 13.698C74.7565 13.698 73.2715 14.589 72.2185 16.02L72.2185 13.968L68.7625 13.968L68.7625 28.386L72.5155 28.386L72.5155 20.529ZM87.1704 28.386L87.1704 21.69L92.6783 28.386L97.4574 28.386L90.7885 20.88L96.7554 13.968L92.4354 13.968L87.1704 20.07L87.1704 9L83.4174 9L83.4174 28.386L87.1704 28.386ZM103.31 28.656C107.495 28.656 110.627 25.362 110.627 21.177C110.627 16.965 107.495 13.698 103.31 13.698C99.1255 13.698 95.9935 16.965 95.9935 21.177C95.9935 25.362 99.1255 28.656 103.31 28.656ZM103.31 25.335C101.447 25.335 99.8545 23.85 99.8545 21.177C99.8545 18.504 101.447 17.046 103.31 17.046C105.173 17.046 106.766 18.504 106.766 21.177C106.766 23.85 105.173 25.335 103.31 25.335Z" fill="#FFFFFF" fill-opacity="1.000000" fill-rule="nonzero"/>
		<path d="M17 6L22 6L22 23L17 23L17 6Z" fill="#FF7043" fill-opacity="1.000000" fill-rule="evenodd"/>
		<path d="M17 23L17 28L0 28L0 23L17 23Z" fill="#FF7043" fill-opacity="1.000000" fill-rule="evenodd"/>
		<path d="M22 6L22 11L5 11L5 6L22 6Z" fill="#FF7043" fill-opacity="1.000000" fill-rule="evenodd"/>
		<path d="M5 28L0 28L0 11L5 11L5 28Z" fill="#FF7043" fill-opacity="1.000000" fill-rule="evenodd"/>
	</g>
</svg>
